<svg width="0" height="0" class="hidden">
  <symbol fill="none" xmlns="http://www.w3.org/2000/svg" viewBox="0 0 24 24" id="youtube">
    <path fill-rule="evenodd" clip-rule="evenodd" d="M7.84499 4.77535C10.4365 4.40822 13.5635 4.40822 16.155 4.77535C18.5096 5.10891 20.3341 6.76142 20.6831 8.54141C21.1056 10.6962 21.1056 13.3038 20.6831 15.4586C20.3341 17.2386 18.5096 18.8911 16.1551 19.2247C13.5635 19.5918 10.4365 19.5918 7.84499 19.2247C5.49049 18.8911 3.666 17.2386 3.31691 15.4586C2.89434 13.3038 2.89438 10.6962 3.31692 8.54142C3.66596 6.76141 5.49048 5.10891 7.84499 4.77535ZM16.4356 2.79512C13.658 2.40163 10.3421 2.40163 7.56446 2.79512C4.54986 3.22219 1.90016 5.37282 1.35429 8.15657C0.881927 10.5655 0.881875 13.4345 1.3543 15.8434C1.90021 18.6272 4.54984 20.7778 7.56446 21.2049C10.3421 21.5984 13.658 21.5984 16.4356 21.2049C19.4502 20.7778 22.0999 18.6272 22.6458 15.8434C23.1181 13.4345 23.1181 10.5655 22.6458 8.15658C22.0999 5.37281 19.4502 3.22219 16.4356 2.79512ZM10.5547 7.16795C10.2478 6.96338 9.8533 6.94431 9.52814 7.11833C9.20299 7.29234 9 7.6312 9 8V16C9 16.3688 9.20299 16.7077 9.52814 16.8817C9.8533 17.0557 10.2478 17.0366 10.5547 16.8321L16.5547 12.8321C16.8329 12.6466 17 12.3344 17 12C17 11.6656 16.8329 11.3534 16.5547 11.1679L10.5547 7.16795ZM14.1972 12L11 14.1315V9.86852L14.1972 12Z" fill="currentColor"></path>
  </symbol>
  <symbol fill="currentColor" id="telegram" xmlns="http://www.w3.org/2000/svg" viewBox="0 0 24 24">
    <path d="M22.26465,2.42773a2.04837,2.04837,0,0,0-2.07813-.32421L2.26562,9.33887a2.043,2.043,0,0,0,.1045,3.81836l3.625,1.26074,2.0205,6.68164A.998.998,0,0,0,8.134,21.352c.00775.012.01868.02093.02692.03259a.98844.98844,0,0,0,.21143.21576c.02307.01758.04516.03406.06982.04968a.98592.98592,0,0,0,.31073.13611l.01184.001.00671.00287a1.02183,1.02183,0,0,0,.20215.02051c.00653,0,.01233-.00312.0188-.00324a.99255.99255,0,0,0,.30109-.05231c.02258-.00769.04193-.02056.06384-.02984a.9931.9931,0,0,0,.20429-.11456,250.75993,250.75993,0,0,1,.15222-.12818L12.416,18.499l4.03027,3.12207a2.02322,2.02322,0,0,0,1.24121.42676A2.05413,2.05413,0,0,0,19.69531,20.415L22.958,4.39844A2.02966,2.02966,0,0,0,22.26465,2.42773ZM9.37012,14.73633a.99357.99357,0,0,0-.27246.50586l-.30951,1.504-.78406-2.59307,4.06525-2.11695ZM17.67188,20.04l-4.7627-3.68945a1.00134,1.00134,0,0,0-1.35352.11914l-.86541.9552.30584-1.48645,7.083-7.083a.99975.99975,0,0,0-1.16894-1.59375L6.74487,12.55432,3.02051,11.19141,20.999,3.999Z"></path>
  </symbol>
  <symbol fill="currentColor" xmlns="http://www.w3.org/2000/svg" viewBox="0 0 1920 1920" id="facebook">
    <path d="m1416.013 791.915-30.91 225.617h-371.252v789.66H788.234v-789.66H449.808V791.915h338.426V585.137c0-286.871 176.207-472.329 449.09-472.329 116.87 0 189.744 6.205 231.822 11.845l-3.272 213.66-173.5.338c-4.737-.451-117.771-9.25-199.332 65.655-52.568 48.169-79.191 117.433-79.191 205.65v181.96h402.162Zm-247.276-304.018c44.446-41.401 113.71-36.889 118.787-36.663l289.467-.113 6.204-417.504-43.544-10.717C1511.675 16.02 1426.053 0 1237.324 0 901.268 0 675.425 235.206 675.425 585.137v93.97H337v451.234h338.425V1920h451.234v-789.66h356.7l61.932-451.233H1126.66v-69.152c0-54.937 14.214-96 42.078-122.058Z" fill-rule="evenodd"></path>
  </symbol>
  <symbol xmlns="http://www.w3.org/2000/svg" viewBox="0 0 24 24" id="linkedin">
    <path d="M6.5 8C7.32843 8 8 7.32843 8 6.5C8 5.67157 7.32843 5 6.5 5C5.67157 5 5 5.67157 5 6.5C5 7.32843 5.67157 8 6.5 8Z" fill="currentColor"></path>
    <path d="M5 10C5 9.44772 5.44772 9 6 9H7C7.55228 9 8 9.44771 8 10V18C8 18.5523 7.55228 19 7 19H6C5.44772 19 5 18.5523 5 18V10Z" fill="currentColor"></path>
    <path d="M11 19H12C12.5523 19 13 18.5523 13 18V13.5C13 12 16 11 16 13V18.0004C16 18.5527 16.4477 19 17 19H18C18.5523 19 19 18.5523 19 18V12C19 10 17.5 9 15.5 9C13.5 9 13 10.5 13 10.5V10C13 9.44771 12.5523 9 12 9H11C10.4477 9 10 9.44772 10 10V18C10 18.5523 10.4477 19 11 19Z" fill="currentColor"></path>
    <path fill-rule="evenodd" clip-rule="evenodd" d="M20 1C21.6569 1 23 2.34315 23 4V20C23 21.6569 21.6569 23 20 23H4C2.34315 23 1 21.6569 1 20V4C1 2.34315 2.34315 1 4 1H20ZM20 3C20.5523 3 21 3.44772 21 4V20C21 20.5523 20.5523 21 20 21H4C3.44772 21 3 20.5523 3 20V4C3 3.44772 3.44772 3 4 3H20Z" fill="currentColor"></path>
  </symbol>
  <symbol fill="currentColor" version="1.1" xmlns="http://www.w3.org/2000/svg" viewBox="0 0 32 32" id="tiktok">
    <path d="M16.656 1.029c1.637-0.025 3.262-0.012 4.886-0.025 0.054 2.031 0.878 3.859 2.189 5.213l-0.002-0.002c1.411 1.271 3.247 2.095 5.271 2.235l0.028 0.002v5.036c-1.912-0.048-3.71-0.489-5.331-1.247l0.082 0.034c-0.784-0.377-1.447-0.764-2.077-1.196l0.052 0.034c-0.012 3.649 0.012 7.298-0.025 10.934-0.103 1.853-0.719 3.543-1.707 4.954l0.020-0.031c-1.652 2.366-4.328 3.919-7.371 4.011l-0.014 0c-0.123 0.006-0.268 0.009-0.414 0.009-1.73 0-3.347-0.482-4.725-1.319l0.040 0.023c-2.508-1.509-4.238-4.091-4.558-7.094l-0.004-0.041c-0.025-0.625-0.037-1.25-0.012-1.862 0.49-4.779 4.494-8.476 9.361-8.476 0.547 0 1.083 0.047 1.604 0.136l-0.056-0.008c0.025 1.849-0.050 3.699-0.050 5.548-0.423-0.153-0.911-0.242-1.42-0.242-1.868 0-3.457 1.194-4.045 2.861l-0.009 0.030c-0.133 0.427-0.21 0.918-0.21 1.426 0 0.206 0.013 0.41 0.037 0.61l-0.002-0.024c0.332 2.046 2.086 3.59 4.201 3.59 0.061 0 0.121-0.001 0.181-0.004l-0.009 0c1.463-0.044 2.733-0.831 3.451-1.994l0.010-0.018c0.267-0.372 0.45-0.822 0.511-1.311l0.001-0.014c0.125-2.237 0.075-4.461 0.087-6.698 0.012-5.036-0.012-10.060 0.025-15.083z"></path>
  </symbol>
  <symbol version="1.1" xmlns="http://www.w3.org/2000/svg" xmlns:xlink="http://www.w3.org/1999/xlink" viewBox="0 0 20 20" id="instagram">
    <g id="Page-1" stroke="none" stroke-width="1" fill="none" fill-rule="evenodd">
      <g id="Dribbble-Light-Preview" transform="translate(-340.000000, -7439.000000)" fill="currentColor">
        <g id="icons" transform="translate(56.000000, 160.000000)">
          <path d="M289.869652,7279.12273 C288.241769,7279.19618 286.830805,7279.5942 285.691486,7280.72871 C284.548187,7281.86918 284.155147,7283.28558 284.081514,7284.89653 C284.035742,7285.90201 283.768077,7293.49818 284.544207,7295.49028 C285.067597,7296.83422 286.098457,7297.86749 287.454694,7298.39256 C288.087538,7298.63872 288.809936,7298.80547 289.869652,7298.85411 C298.730467,7299.25511 302.015089,7299.03674 303.400182,7295.49028 C303.645956,7294.859 303.815113,7294.1374 303.86188,7293.08031 C304.26686,7284.19677 303.796207,7282.27117 302.251908,7280.72871 C301.027016,7279.50685 299.5862,7278.67508 289.869652,7279.12273 M289.951245,7297.06748 C288.981083,7297.0238 288.454707,7296.86201 288.103459,7296.72603 C287.219865,7296.3826 286.556174,7295.72155 286.214876,7294.84312 C285.623823,7293.32944 285.819846,7286.14023 285.872583,7284.97693 C285.924325,7283.83745 286.155174,7282.79624 286.959165,7281.99226 C287.954203,7280.99968 289.239792,7280.51332 297.993144,7280.90837 C299.135448,7280.95998 300.179243,7281.19026 300.985224,7281.99226 C301.980262,7282.98483 302.473801,7284.28014 302.071806,7292.99991 C302.028024,7293.96767 301.865833,7294.49274 301.729513,7294.84312 C300.829003,7297.15085 298.757333,7297.47145 289.951245,7297.06748 M298.089663,7283.68956 C298.089663,7284.34665 298.623998,7284.88065 299.283709,7284.88065 C299.943419,7284.88065 300.47875,7284.34665 300.47875,7283.68956 C300.47875,7283.03248 299.943419,7282.49847 299.283709,7282.49847 C298.623998,7282.49847 298.089663,7283.03248 298.089663,7283.68956 M288.862673,7288.98792 C288.862673,7291.80286 291.150266,7294.08479 293.972194,7294.08479 C296.794123,7294.08479 299.081716,7291.80286 299.081716,7288.98792 C299.081716,7286.17298 296.794123,7283.89205 293.972194,7283.89205 C291.150266,7283.89205 288.862673,7286.17298 288.862673,7288.98792 M290.655732,7288.98792 C290.655732,7287.16159 292.140329,7285.67967 293.972194,7285.67967 C295.80406,7285.67967 297.288657,7287.16159 297.288657,7288.98792 C297.288657,7290.81525 295.80406,7292.29716 293.972194,7292.29716 C292.140329,7292.29716 290.655732,7290.81525 290.655732,7288.98792" id="instagram-[#167]"></path>
        </g>
      </g>
    </g>
  </symbol>
  <symbol fill="none" xmlns="http://www.w3.org/2000/svg" viewBox="0 0 24 24" id="check">
    <g>
      <path id="Vector" d="M6 12L10.2426 16.2426L18.727 7.75732" stroke="currentColor" stroke-width="2" stroke-linecap="round" stroke-linejoin="round"></path>
    </g>
  </symbol>
  <symbol fill="none" xmlns="http://www.w3.org/2000/svg" viewBox="0 0 24 24" id="check-circle">
    <path d="M12.4 21.75C9.81413 21.75 7.33418 20.7228 5.5057 18.8943C3.67722 17.0658 2.64999 14.5859 2.64999 12C2.64999 9.41414 3.67722 6.93419 5.5057 5.10571C7.33418 3.27723 9.81413 2.25 12.4 2.25C12.5989 2.25 12.7897 2.32902 12.9303 2.46967C13.071 2.61032 13.15 2.80109 13.15 3C13.15 3.19891 13.071 3.38968 12.9303 3.53033C12.7897 3.67098 12.5989 3.75 12.4 3.75C10.212 3.75 8.11354 4.61919 6.56636 6.16637C5.01919 7.71354 4.14999 9.81196 4.14999 12C4.14999 14.188 5.01919 16.2865 6.56636 17.8336C8.11354 19.3808 10.212 20.25 12.4 20.25C13.4932 20.2536 14.5761 20.0377 15.5844 19.6151C16.5927 19.1926 17.5059 18.5719 18.27 17.79C18.4106 17.6481 18.6017 17.5679 18.8015 17.5669C19.0012 17.566 19.1931 17.6444 19.335 17.785C19.4769 17.9256 19.5571 18.1167 19.5581 18.3165C19.559 18.5162 19.4806 18.7081 19.34 18.85C18.4349 19.7715 17.3547 20.5028 16.1629 21.0008C14.971 21.4989 13.6917 21.7536 12.4 21.75Z" fill="currentColor"></path>
    <path d="M12.1 15.45C12.0015 15.4505 11.9038 15.4312 11.8128 15.3935C11.7218 15.3557 11.6392 15.3001 11.57 15.23L7.56999 11.23C7.43751 11.0878 7.36539 10.8998 7.36881 10.7055C7.37224 10.5112 7.45096 10.3258 7.58837 10.1884C7.72578 10.051 7.91117 9.97225 8.10547 9.96882C8.29977 9.9654 8.48782 10.0375 8.62999 10.17L12.1 13.64L20.1 5.64C20.1687 5.56631 20.2515 5.50721 20.3435 5.46622C20.4355 5.42523 20.5348 5.40318 20.6355 5.40141C20.7362 5.39963 20.8362 5.41816 20.9296 5.45588C21.023 5.4936 21.1078 5.54974 21.179 5.62096C21.2502 5.69218 21.3064 5.77701 21.3441 5.8704C21.3818 5.96379 21.4004 6.06382 21.3986 6.16452C21.3968 6.26522 21.3748 6.36454 21.3338 6.45654C21.2928 6.54854 21.2337 6.63134 21.16 6.7L12.66 15.2C12.5904 15.2798 12.5042 15.3435 12.4075 15.3867C12.3108 15.4298 12.2059 15.4514 12.1 15.45Z" fill="currentColor"></path>
  </symbol>
  <symbol fill="currentColor" version="1.1" id="flower-rose" xmlns="http://www.w3.org/2000/svg" xmlns:xlink="http://www.w3.org/1999/xlink" xml:space="preserve" viewBox="0 0 512.001 512.001">
    <g>
      <g>
        <path d="M256,100.006c-30.326,0-55.352,4.097-72.372,11.851c-1.367,0.624-2.637,1.252-3.829,1.883
			c23.037,14.055,44.33,30.845,63.631,50.215c2.176,2.184,4.31,4.399,6.42,6.632c23.426-23.217,49.52-42.958,77.918-58.99
			C310.763,104.017,285.977,100.006,256,100.006z"></path>
      </g>
    </g>
    <g>
      <g>
        <path d="M411.488,30.941C370.491,10.988,315.271,0,256,0s-114.49,10.988-155.487,30.941C79.01,41.406,62.227,53.951,50.965,67.594
			c29.08,4.073,57.428,11.904,84.687,23.471c0.771,0.327,1.53,0.677,2.299,1.009c7.233-7.575,16.587-14.064,27.91-19.221
			C188.42,62.578,219.589,57.147,256,57.147c36.411,0,67.581,5.432,90.139,15.707c10.415,4.743,19.163,10.615,26.13,17.42
			c28.562-11.402,58.178-19.086,88.521-22.979C449.531,53.766,432.834,41.327,411.488,30.941z"></path>
      </g>
    </g>
    <g>
      <g>
        <path d="M507.89,107.15c-90.077,0-171.78,36.978-230.526,96.542c15.255,20.924,28.039,43.503,38.165,67.549
			c14.455,34.324,22.966,70.36,25.427,107.417c27.393-18.901,59.818-29.262,93.955-29.652c0.664-0.007,1.333-0.011,1.996-0.011
			c10.221,0,20.303,0.906,30.161,2.659c25.955-35.809,40.824-81.265,40.824-137.683L507.89,107.15z"></path>
      </g>
    </g>
    <g>
      <g>
        <path d="M3.638,107.15v106.821c0,52.401,13.879,99.208,38.151,138.266c10.855-2.143,21.996-3.243,33.306-3.243
			c0.667,0,1.33,0.003,1.996,0.011c45.337,0.516,87.661,18.617,119.179,50.968l59.731,60.887l42.858-43.687v-14.804
			C299.447,239.497,166.511,107.15,3.638,107.15z"></path>
      </g>
    </g>
    <g>
      <g>
        <path d="M435.395,391.862c-33.868,0.386-65.467,13.892-88.979,38.031l-0.053,0.056l-58.685,59.821
			c21.42,14.657,46.873,22.441,73.613,22.226c34.112-0.276,65.83-13.609,89.311-37.545l58.814-59.952
			C487.87,399.488,462.281,391.587,435.395,391.862z"></path>
      </g>
    </g>
    <g>
      <g>
        <path d="M165.582,429.893c-23.511-24.139-55.111-37.647-88.979-38.031c-26.886-0.331-52.473,7.626-74.021,22.636l58.814,59.951
			c23.482,23.937,55.199,37.271,89.311,37.547c26.72,0.229,52.192-7.568,73.615-22.224L165.582,429.893z"></path>
      </g>
    </g>
  </symbol>
</svg>